<?xml version="1.0" encoding="UTF-8"?>
<svg id="Layer_1" data-name="Layer 1" xmlns="http://www.w3.org/2000/svg" viewBox="0 0 150 150">
  <defs>
    <style>
      .cls-1 {
        fill: #6baf4f;
      }
    </style>
  </defs>
  <path class="cls-1" d="M96.23,62.38h-21.19V15.36c0-.27-1.84-1.76-2.36-1.98-3.52-1.5-5.21,1.72-6.99,4.12-14.25,19.24-25.45,43.5-39.41,63.26-1.99,1.67.12,6.75,1.72,6.75h21.91v45.58c0,3.79,5.95,5.73,8.24,2.49l41.99-68.53c.22-1.5-2.8-4.67-3.9-4.67Z"/>
  <path class="cls-1" d="M89.05,12.79c-5.54,0-7.24,6.12-4.19,8.02,1.52.94,10.01,1.61,13.44,2.91,6.82,2.58,14.05,9.64,16.47,16.56,1.01,2.88,1.61,12.07,2.83,13.32,1.24,1.28,5.04,1.11,6.32-.18,4.4-19.69-15.1-40.66-34.86-40.64Z"/>
  <path class="cls-1" d="M83.62,34c.1,5.11,4.77,3.48,8.66,5.05,7.13,2.89,6.8,8.19,8.79,14.55,1.14,1.17,4.97,1.16,6.13,0,3.63-3.63-1.8-14.85-4.93-18.05-3.92-4-18.82-10.42-18.64-1.54Z"/>
  <circle class="cls-1" cx="87.56" cy="50.37" r="4.18"/>
</svg>