<?xml version="1.0" encoding="UTF-8"?>
<svg id="Layer_2" data-name="Layer 2" xmlns="http://www.w3.org/2000/svg" viewBox="0 0 353.69 79.47">
  <defs>
    <style>
      .cls-1 {
        fill: #6baf4f;
      }
    </style>
  </defs>
  <g id="Layer_1-2" data-name="Layer 1">
    <g>
      <g>
        <path d="M128.34,14.52l-14.5,42.94-15.48-42.94h-10.99l20.22,56.96c3.47-.51,8.24.56,11.51-.04.56-.1.96-.24,1.21-.79l19.53-56.13h-11.49Z"/>
        <path d="M163.59,30.98c-18.93-6.16-31.27,10.94-25.89,28.37,4.22,13.68,23.29,17.22,32.94,7.42,9.45-9.6,6.82-31.28-7.05-35.8ZM154.19,63.34c-8.36-1.54-8.51-23.17,0-24.73,6.92-1.27,9.92,3.4,10.56,9.68.74,7.25-1.3,16.75-10.56,15.05Z"/>
        <path d="M225.28,63.96c-1.85.05-9,.55-9-2.24v-23.22h8.99v-7.99h-8.99v-11.73c-.86-1.13-7.27-1.01-8.01-.52l-3,12.23c-.58.56-6.5-.87-7.47.77v7.24h7v25.72c0,.59,1.68,3.61,2.23,4.26,3.15,3.67,13.09,4.33,17.42,2.9,1.63-.54.51-5.86.84-7.41Z"/>
        <path d="M192.3,60.71V13.28l-.75-.75h-10.74v51.18c0,2.3,2.89,5.95,4.97,7.02,2.23,1.15,12.13,2.32,12.95-.1l.07-6.68c-2.45.19-6.01-.44-6.5-3.24Z"/>
        <path d="M284.73,35.25l-2.5,4.24v-8.99h-10.99v40.95h11.49v-24.22c0-.25,1.45-3.34,1.77-3.73,2.56-3.18,9.09-2.92,12.72-2.52v-10.99c-5.35-.74-9.15,1.24-12.49,5.24Z"/>
        <rect x="300.72" y="30.5" width="10.99" height="40.95"/>
        <rect x="300.22" y="14.52" width="11.49" height="9.99"/>
        <path d="M320.49,36.03c-1.03,1.51-2.73,5.46-1.53,6.96h8.49c3.75-7.82,16.88-7.7,15.24,3h-10.24c-2.67,0-8.98,2.15-11.21,3.78-6.8,4.95-6,17.04,1.63,20.78,5.53,2.72,13.48,2.42,17.84-2.32,1.02-1.12,1.28-2.49,2.48-3.26l.58,5.67.67.83h9.24v-31.21c0-.52-1.36-4.07-1.77-4.72-5.19-8.09-26.04-7.38-31.42.51ZM341.41,60.93c-4.75,7.11-17.26,2.92-13.14-5.14.87-1.69,4.97-3.81,6.68-3.81h7.74c-.12,3.33.67,6.02-1.28,8.95Z"/>
        <path d="M242.64,30.13c-14.55,2.09-19.28,22.22-12.28,33.49,8.14,13.11,33.05,11.21,35.39-5.15h-9.74c-4.79,9.49-18.34,5.92-17.24-4.99h27.48c.66-15.37-7.36-25.67-23.6-23.34ZM238.76,46.98c-.07-12.09,16.46-12.22,16.49,0h-16.49Z"/>
      </g>
      <g>
        <path class="cls-1" d="M45.19,31.67h-13.53V1.64c0-.17-1.17-1.12-1.51-1.27-2.25-.96-3.33,1.1-4.47,2.63C16.58,15.3,9.43,30.79.52,43.41c-1.27,1.07.08,4.31,1.1,4.31h13.99v29.11c0,2.42,3.8,3.66,5.26,1.59l26.82-43.77c.14-.96-1.79-2.98-2.49-2.98Z"/>
        <path class="cls-1" d="M40.6,0c-3.54,0-4.62,3.91-2.67,5.12.97.6,6.39,1.03,8.58,1.86,4.36,1.65,8.97,6.15,10.52,10.58.64,1.84,1.03,7.71,1.81,8.51.79.81,3.22.71,4.03-.11C65.68,13.38,53.22-.01,40.6,0Z"/>
        <path class="cls-1" d="M37.14,13.55c.07,3.26,3.04,2.22,5.53,3.23,4.55,1.84,4.34,5.23,5.61,9.29.73.75,3.17.74,3.91,0,2.32-2.32-1.15-9.49-3.15-11.53-2.51-2.56-12.02-6.65-11.9-.98Z"/>
        <circle class="cls-1" cx="39.65" cy="24" r="2.67"/>
      </g>
    </g>
  </g>
</svg>